# xmcd
#
# Track frame offsets:
#	150
#	19144
#	36972
#	56650
#	78926
#	94411
#	110538
#	126798
#	146675
#	168474
#	186086
#
# Disc length: 2717 seconds
#
# Revision: 0
# Processed by: cddbd v1.4PL0 Copyright (c) Steve Scherf et al.
# Submitted via: EasyCDDAExtractor 4.6.0.1
#
DISCID=960a9b0b
DTITLE=Spoonful James - Seven Mile Breakdown
DYEAR=1900
DGENRE=Southern Rock
TTITLE0=Seven Mile Breakdown
TTITLE1=It's All Gonna Pass
TTITLE2=Take it Off Him, Put it on Me
TTITLE3=Too Many Things
TTITLE4=Too Late
TTITLE5=Closing In
TTITLE6=Ain't No Way
TTITLE7=Big Legged Woman
TTITLE8=That's it for Now
TTITLE9=On the Ground
TTITLE10=Nothing on My Baby
EXTD=
EXTT0=
EXTT1=
EXTT2=
EXTT3=
EXTT4=
EXTT5=
EXTT6=
EXTT7=
EXTT8=
EXTT9=
EXTT10=
PLAYORDER=
